<svg id="visual" viewBox="0 0 900 900" width="900" height="900" xmlns="http://www.w3.org/2000/svg" xmlns:xlink="http://www.w3.org/1999/xlink" version="1.1"><rect x="0" y="0" width="900" height="900" fill="#0078D4"></rect><g transform="translate(452.53604752509324 482.21016559179793)"><path d="M136.2 -240.1C182.4 -209.2 229.8 -184.6 278.8 -145.6C327.8 -106.7 378.4 -53.3 393 8.4C407.5 70.2 386.1 140.3 347.3 197.1C308.6 253.8 252.5 297.1 191.8 299.5C131 301.9 65.5 263.5 11.9 242.8C-41.7 222.2 -83.3 219.3 -128.1 207.7C-172.8 196 -220.6 175.5 -270.6 139.4C-320.6 103.3 -372.8 51.7 -392.9 -11.6C-412.9 -74.8 -400.9 -149.7 -367.6 -214.6C-334.2 -279.6 -279.6 -334.6 -214.8 -354.7C-150 -374.8 -75 -359.9 -15 -333.9C45 -307.9 90 -270.9 136.2 -240.1" fill="#00aeff"></path></g></svg>
