<svg id="visual" viewBox="0 0 900 900" width="900" height="900" xmlns="http://www.w3.org/2000/svg" xmlns:xlink="http://www.w3.org/1999/xlink" version="1.1"><rect x="0" y="0" width="900" height="900" fill="#0078D4"></rect><g transform="translate(506.44741771650286 447.27851739671087)"><path d="M131 -218.8C165.7 -181.5 187 -138.3 200 -95.5C213.1 -52.7 217.9 -10.4 229 45.2C240.2 100.8 257.6 169.6 238 223.7C218.3 277.9 161.6 317.4 99.2 334C36.8 350.5 -31.2 344.1 -105.3 333.8C-179.5 323.4 -259.8 309 -306.6 261.9C-353.4 214.7 -366.8 134.7 -356.5 64.4C-346.2 -5.9 -312.3 -66.5 -288.6 -137.3C-264.9 -208.1 -251.4 -289.1 -205 -321.1C-158.6 -353.1 -79.3 -336.1 -15.6 -311.8C48.1 -287.5 96.2 -256.1 131 -218.8" fill="#34A3C2"></path></g></svg>