<svg id="visual" viewBox="0 0 900 900" width="900" height="900" xmlns="http://www.w3.org/2000/svg" xmlns:xlink="http://www.w3.org/1999/xlink" version="1.1"><rect x="0" y="0" width="900" height="900" fill="#0078D4"></rect><g transform="translate(448.74991015554076 436.60109882474063)"><path d="M181.7 -282.3C240.5 -280.9 296.5 -242.2 293.9 -188.9C291.2 -135.7 230 -67.8 211.8 -10.5C193.6 46.8 218.5 93.7 221.6 147.8C224.7 201.9 206.1 263.3 165.6 269.1C125 274.8 62.5 224.9 -6.2 235.7C-75 246.6 -150 318.1 -183.3 308.2C-216.7 298.3 -208.4 206.9 -224 142C-239.7 77 -279.4 38.5 -289 -5.6C-298.7 -49.7 -278.4 -99.3 -256.2 -153C-234.1 -206.7 -210 -264.4 -167 -274.9C-124 -285.4 -62 -248.7 -0.3 -248.3C61.5 -247.9 123 -283.7 181.7 -282.3" fill="#34A3C2"></path></g></svg>