<svg id="visual" viewBox="0 0 900 300" width="900" height="300" xmlns="http://www.w3.org/2000/svg" xmlns:xlink="http://www.w3.org/1999/xlink" version="1.1"><rect x="0" y="0" width="900" height="300" fill="#0078D4"></rect><path d="M0 113L12.5 112.3C25 111.7 50 110.3 75 112.2C100 114 125 119 150 120.2C175 121.3 200 118.7 225 116.2C250 113.7 275 111.3 300 112.3C325 113.3 350 117.7 375 117.8C400 118 425 114 450 111.2C475 108.3 500 106.7 525 103C550 99.3 575 93.7 600 91C625 88.3 650 88.7 675 94.3C700 100 725 111 750 112.8C775 114.7 800 107.3 825 105C850 102.7 875 105.3 887.5 106.7L900 108L900 301L887.5 301C875 301 850 301 825 301C800 301 775 301 750 301C725 301 700 301 675 301C650 301 625 301 600 301C575 301 550 301 525 301C500 301 475 301 450 301C425 301 400 301 375 301C350 301 325 301 300 301C275 301 250 301 225 301C200 301 175 301 150 301C125 301 100 301 75 301C50 301 25 301 12.5 301L0 301Z" fill="#95e5ff"></path><path d="M0 113L12.5 112C25 111 50 109 75 108.5C100 108 125 109 150 114.7C175 120.3 200 130.7 225 133C250 135.3 275 129.7 300 127.5C325 125.3 350 126.7 375 129.2C400 131.7 425 135.3 450 135.2C475 135 500 131 525 131.2C550 131.3 575 135.7 600 133.5C625 131.3 650 122.7 675 121.8C700 121 725 128 750 128.8C775 129.7 800 124.3 825 125.7C850 127 875 135 887.5 139L900 143L900 301L887.5 301C875 301 850 301 825 301C800 301 775 301 750 301C725 301 700 301 675 301C650 301 625 301 600 301C575 301 550 301 525 301C500 301 475 301 450 301C425 301 400 301 375 301C350 301 325 301 300 301C275 301 250 301 225 301C200 301 175 301 150 301C125 301 100 301 75 301C50 301 25 301 12.5 301L0 301Z" fill="#8be3ff"></path><path d="M0 129L12.5 128.8C25 128.7 50 128.3 75 126.7C100 125 125 122 150 120.3C175 118.7 200 118.3 225 123.8C250 129.3 275 140.7 300 143C325 145.3 350 138.7 375 133C400 127.3 425 122.7 450 126.7C475 130.7 500 143.3 525 146.5C550 149.7 575 143.3 600 140.8C625 138.3 650 139.7 675 138.7C700 137.7 725 134.3 750 133.3C775 132.3 800 133.7 825 134.3C850 135 875 135 887.5 135L900 135L900 301L887.5 301C875 301 850 301 825 301C800 301 775 301 750 301C725 301 700 301 675 301C650 301 625 301 600 301C575 301 550 301 525 301C500 301 475 301 450 301C425 301 400 301 375 301C350 301 325 301 300 301C275 301 250 301 225 301C200 301 175 301 150 301C125 301 100 301 75 301C50 301 25 301 12.5 301L0 301Z" fill="#80e1ff"></path><path d="M0 166L12.5 166.5C25 167 50 168 75 163.2C100 158.3 125 147.7 150 145.7C175 143.7 200 150.3 225 150.2C250 150 275 143 300 139.5C325 136 350 136 375 136.5C400 137 425 138 450 141.5C475 145 500 151 525 155.5C550 160 575 163 600 161.7C625 160.3 650 154.7 675 151.3C700 148 725 147 750 148.3C775 149.7 800 153.3 825 156.7C850 160 875 163 887.5 164.5L900 166L900 301L887.5 301C875 301 850 301 825 301C800 301 775 301 750 301C725 301 700 301 675 301C650 301 625 301 600 301C575 301 550 301 525 301C500 301 475 301 450 301C425 301 400 301 375 301C350 301 325 301 300 301C275 301 250 301 225 301C200 301 175 301 150 301C125 301 100 301 75 301C50 301 25 301 12.5 301L0 301Z" fill="#74deff"></path><path d="M0 163L12.5 162.7C25 162.3 50 161.7 75 160.2C100 158.7 125 156.3 150 160.2C175 164 200 174 225 175.2C250 176.3 275 168.7 300 167.8C325 167 350 173 375 171.7C400 170.3 425 161.7 450 157.7C475 153.7 500 154.3 525 157.5C550 160.7 575 166.3 600 169C625 171.7 650 171.3 675 169.8C700 168.3 725 165.7 750 165C775 164.3 800 165.7 825 169C850 172.3 875 177.7 887.5 180.3L900 183L900 301L887.5 301C875 301 850 301 825 301C800 301 775 301 750 301C725 301 700 301 675 301C650 301 625 301 600 301C575 301 550 301 525 301C500 301 475 301 450 301C425 301 400 301 375 301C350 301 325 301 300 301C275 301 250 301 225 301C200 301 175 301 150 301C125 301 100 301 75 301C50 301 25 301 12.5 301L0 301Z" fill="#67dcff"></path><path d="M0 188L12.5 190C25 192 50 196 75 196.8C100 197.7 125 195.3 150 192.2C175 189 200 185 225 182.8C250 180.7 275 180.3 300 178.7C325 177 350 174 375 174.3C400 174.7 425 178.3 450 182.2C475 186 500 190 525 191C550 192 575 190 600 189.5C625 189 650 190 675 191.8C700 193.7 725 196.3 750 195.3C775 194.3 800 189.7 825 189.8C850 190 875 195 887.5 197.5L900 200L900 301L887.5 301C875 301 850 301 825 301C800 301 775 301 750 301C725 301 700 301 675 301C650 301 625 301 600 301C575 301 550 301 525 301C500 301 475 301 450 301C425 301 400 301 375 301C350 301 325 301 300 301C275 301 250 301 225 301C200 301 175 301 150 301C125 301 100 301 75 301C50 301 25 301 12.5 301L0 301Z" fill="#58daff"></path><path d="M0 187L12.5 187.8C25 188.7 50 190.3 75 193.8C100 197.3 125 202.7 150 202.3C175 202 200 196 225 194.3C250 192.7 275 195.3 300 198.8C325 202.3 350 206.7 375 205.8C400 205 425 199 450 197.8C475 196.7 500 200.3 525 202.7C550 205 575 206 600 207C625 208 650 209 675 207.8C700 206.7 725 203.3 750 203.8C775 204.3 800 208.7 825 209.5C850 210.3 875 207.7 887.5 206.3L900 205L900 301L887.5 301C875 301 850 301 825 301C800 301 775 301 750 301C725 301 700 301 675 301C650 301 625 301 600 301C575 301 550 301 525 301C500 301 475 301 450 301C425 301 400 301 375 301C350 301 325 301 300 301C275 301 250 301 225 301C200 301 175 301 150 301C125 301 100 301 75 301C50 301 25 301 12.5 301L0 301Z" fill="#4ed4f9"></path><path d="M0 210L12.5 208.8C25 207.7 50 205.3 75 204.5C100 203.7 125 204.3 150 206.8C175 209.3 200 213.7 225 217.3C250 221 275 224 300 222C325 220 350 213 375 211.7C400 210.3 425 214.7 450 217.5C475 220.3 500 221.7 525 220.8C550 220 575 217 600 216.5C625 216 650 218 675 219.3C700 220.7 725 221.3 750 221C775 220.7 800 219.3 825 217.8C850 216.3 875 214.7 887.5 213.8L900 213L900 301L887.5 301C875 301 850 301 825 301C800 301 775 301 750 301C725 301 700 301 675 301C650 301 625 301 600 301C575 301 550 301 525 301C500 301 475 301 450 301C425 301 400 301 375 301C350 301 325 301 300 301C275 301 250 301 225 301C200 301 175 301 150 301C125 301 100 301 75 301C50 301 25 301 12.5 301L0 301Z" fill="#49caee"></path><path d="M0 233L12.5 233.7C25 234.3 50 235.7 75 236.7C100 237.7 125 238.3 150 238C175 237.7 200 236.3 225 236.2C250 236 275 237 300 235C325 233 350 228 375 226.7C400 225.3 425 227.7 450 228C475 228.3 500 226.7 525 225.7C550 224.7 575 224.3 600 225.2C625 226 650 228 675 231C700 234 725 238 750 237.2C775 236.3 800 230.7 825 227.8C850 225 875 225 887.5 225L900 225L900 301L887.5 301C875 301 850 301 825 301C800 301 775 301 750 301C725 301 700 301 675 301C650 301 625 301 600 301C575 301 550 301 525 301C500 301 475 301 450 301C425 301 400 301 375 301C350 301 325 301 300 301C275 301 250 301 225 301C200 301 175 301 150 301C125 301 100 301 75 301C50 301 25 301 12.5 301L0 301Z" fill="#44c0e3"></path><path d="M0 248L12.5 249C25 250 50 252 75 250.8C100 249.7 125 245.3 150 243C175 240.7 200 240.3 225 240.8C250 241.3 275 242.7 300 244.2C325 245.7 350 247.3 375 248.3C400 249.3 425 249.7 450 250.5C475 251.3 500 252.7 525 252.7C550 252.7 575 251.3 600 248.7C625 246 650 242 675 242.3C700 242.7 725 247.3 750 247.8C775 248.3 800 244.7 825 244.3C850 244 875 247 887.5 248.5L900 250L900 301L887.5 301C875 301 850 301 825 301C800 301 775 301 750 301C725 301 700 301 675 301C650 301 625 301 600 301C575 301 550 301 525 301C500 301 475 301 450 301C425 301 400 301 375 301C350 301 325 301 300 301C275 301 250 301 225 301C200 301 175 301 150 301C125 301 100 301 75 301C50 301 25 301 12.5 301L0 301Z" fill="#3fb6d9"></path><path d="M0 255L12.5 255.7C25 256.3 50 257.7 75 258C100 258.3 125 257.7 150 257.7C175 257.7 200 258.3 225 259.5C250 260.7 275 262.3 300 264C325 265.7 350 267.3 375 266.3C400 265.3 425 261.7 450 261.2C475 260.7 500 263.3 525 263.2C550 263 575 260 600 260.3C625 260.7 650 264.3 675 265.7C700 267 725 266 750 264C775 262 800 259 825 258.8C850 258.7 875 261.3 887.5 262.7L900 264L900 301L887.5 301C875 301 850 301 825 301C800 301 775 301 750 301C725 301 700 301 675 301C650 301 625 301 600 301C575 301 550 301 525 301C500 301 475 301 450 301C425 301 400 301 375 301C350 301 325 301 300 301C275 301 250 301 225 301C200 301 175 301 150 301C125 301 100 301 75 301C50 301 25 301 12.5 301L0 301Z" fill="#3aadce"></path><path d="M0 281L12.5 280.3C25 279.7 50 278.3 75 277.3C100 276.3 125 275.7 150 276.3C175 277 200 279 225 278.7C250 278.3 275 275.7 300 275.2C325 274.7 350 276.3 375 277.7C400 279 425 280 450 279.2C475 278.3 500 275.7 525 275C550 274.3 575 275.7 600 275.5C625 275.3 650 273.7 675 274.5C700 275.3 725 278.7 750 278.8C775 279 800 276 825 274.5C850 273 875 273 887.5 273L900 273L900 301L887.5 301C875 301 850 301 825 301C800 301 775 301 750 301C725 301 700 301 675 301C650 301 625 301 600 301C575 301 550 301 525 301C500 301 475 301 450 301C425 301 400 301 375 301C350 301 325 301 300 301C275 301 250 301 225 301C200 301 175 301 150 301C125 301 100 301 75 301C50 301 25 301 12.5 301L0 301Z" fill="#35a3c3"></path></svg>